<svg width="128" height="128" viewBox="0 0 128 128" fill="none" xmlns="http://www.w3.org/2000/svg">
<path d="M64 128C99.3462 128 128 99.3462 128 64C128 28.6538 99.3462 0 64 0C28.6538 0 0 28.6538 0 64C0 99.3462 28.6538 128 64 128Z" fill="#6A40FC"/>
<path d="M43 64C48.5228 64 53 59.5228 53 54C53 48.4772 48.5228 44 43 44C39 49.5 36.5 51.5 33 54C33 59.5228 37.4772 64 43 64Z" fill="white"/>
<path d="M85 64C90.5228 64 95 59.5228 95 54C87.5 52 86 48 85 44C79.4772 44 75 48.4772 75 54C75 59.5228 79.4772 64 85 64Z" fill="white"/>
<path d="M46 61C48.7614 61 51 58.7614 51 56C51 53.2386 48.7614 51 46 51C43.2386 51 41 53.2386 41 56C41 58.7614 43.2386 61 46 61Z" fill="#2E1A80"/>
<path d="M88 61C90.7614 61 93 58.7614 93 56C93 53.2386 90.7614 51 88 51C85.2386 51 83 53.2386 83 56C83 58.7614 85.2386 61 88 61Z" fill="#2E1A80"/>
<path d="M48 55C49.1046 55 50 54.1046 50 53C50 51.8954 49.1046 51 48 51C46.8954 51 46 51.8954 46 53C46 54.1046 46.8954 55 48 55Z" fill="white"/>
<path d="M90 55C91.1046 55 92 54.1046 92 53C92 51.8954 91.1046 51 90 51C88.8954 51 88 51.8954 88 53C88 54.1046 88.8954 55 90 55Z" fill="white"/>
<path d="M44 89C57.3333 77 70.6667 77 84 89" stroke="white" stroke-width="3.5" stroke-linecap="round"/>
<path opacity="0.5" d="M27 82C33.6274 82 39 78.4183 39 74C39 69.5817 33.6274 66 27 66C20.3726 66 15 69.5817 15 74C15 78.4183 20.3726 82 27 82Z" fill="#8B63FF"/>
<path opacity="0.5" d="M101 82C107.627 82 113 78.4183 113 74C113 69.5817 107.627 66 101 66C94.3726 66 89 69.5817 89 74C89 78.4183 94.3726 82 101 82Z" fill="#8B63FF"/>
<path d="M17 48C48.3333 8 79.6667 8 111 48" stroke="#BDFB46" stroke-width="10" stroke-linecap="round"/>
<path d="M17 73C23.6274 73 29 66.2843 29 58C29 49.7157 23.6274 43 17 43C10.3726 43 5 49.7157 5 58C5 66.2843 10.3726 73 17 73Z" fill="#BDFB46"/>
<path d="M111 73C117.627 73 123 66.2843 123 58C123 49.7157 117.627 43 111 43C104.373 43 99 49.7157 99 58C99 66.2843 104.373 73 111 73Z" fill="#BDFB46"/>
</svg>
