<svg width="104" height="20" viewBox="0 0 104 20" fill="none" xmlns="http://www.w3.org/2000/svg">
<g clip-path="url(#clip0_469_1368)">
<path d="M1.02232 14.5942C1.58693 14.5942 2.04464 13.6446 2.04464 12.4734C2.04464 11.3021 1.58693 10.3525 1.02232 10.3525C0.457708 10.3525 0 11.3021 0 12.4734C0 13.6446 0.457708 14.5942 1.02232 14.5942Z" fill="#663EF2"/>
<path d="M4.11654 17.3827C4.82245 17.3827 5.3947 15.1169 5.3947 12.322C5.3947 9.52699 4.82245 7.26123 4.11654 7.26123C3.41063 7.26123 2.83838 9.52699 2.83838 12.322C2.83838 15.1169 3.41063 17.3827 4.11654 17.3827Z" fill="#663EF2"/>
<path d="M7.5502 19.3892C8.49103 19.3892 9.25372 15.8618 9.25372 11.5105C9.25372 7.15923 8.49103 3.63184 7.5502 3.63184C6.60937 3.63184 5.84668 7.15923 5.84668 11.5105C5.84668 15.8618 6.60937 19.3892 7.5502 19.3892Z" fill="#663EF2"/>
<path d="M18.0252 17.3827C18.7311 17.3827 19.3034 15.1169 19.3034 12.322C19.3034 9.52699 18.7311 7.26123 18.0252 7.26123C17.3193 7.26123 16.7471 9.52699 16.7471 12.322C16.7471 15.1169 17.3193 17.3827 18.0252 17.3827Z" fill="#663EF2"/>
<path d="M14.5902 19.3892C15.5311 19.3892 16.2938 15.8618 16.2938 11.5105C16.2938 7.15923 15.5311 3.63184 14.5902 3.63184C13.6494 3.63184 12.8867 7.15923 12.8867 11.5105C12.8867 15.8618 13.6494 19.3892 14.5902 19.3892Z" fill="#663EF2"/>
<path d="M21.1361 14.5942C21.7007 14.5942 22.1584 13.6446 22.1584 12.4734C22.1584 11.3021 21.7007 10.3525 21.1361 10.3525C20.5715 10.3525 20.1138 11.3021 20.1138 12.4734C20.1138 13.6446 20.5715 14.5942 21.1361 14.5942Z" fill="#663EF2"/>
<path d="M11.0707 19.9989C12.2941 19.9989 13.2859 15.522 13.2859 9.99947C13.2859 4.47692 12.2941 0 11.0707 0C9.84725 0 8.85547 4.47692 8.85547 9.99947C8.85547 15.522 9.84725 19.9989 11.0707 19.9989Z" fill="#663EF2"/>
<path d="M30.2607 0.788574H39.7258C40.9093 0.788574 41.9379 0.984148 42.8125 1.37319C43.6871 1.76329 44.3902 2.27535 44.9216 2.90728C45.4531 3.54027 45.8431 4.22478 46.0916 4.96186C46.3402 5.69894 46.465 6.42235 46.465 7.13314C46.465 9.30022 45.8129 10.9426 44.5098 12.0614C43.2067 13.1801 41.4574 13.7385 39.263 13.7385H35.9194V19.3554H30.2607V0.788574ZM35.9183 9.31809H38.1044C38.5495 9.31809 38.9406 9.30127 39.2744 9.26552C39.6083 9.23082 39.9171 9.14881 40.2 9.01842C40.4829 8.88804 40.7055 8.68932 40.8687 8.42014C41.032 8.15201 41.1131 7.79241 41.1131 7.34133C41.1131 6.94282 41.0445 6.61792 40.9072 6.36662C40.7699 6.11532 40.5765 5.93341 40.329 5.82091C40.0804 5.7084 39.81 5.6348 39.5188 5.6001C39.2266 5.5654 38.8667 5.54858 38.4383 5.54858H35.9173V9.31915L35.9183 9.31809Z" fill="#663EF2"/>
<path d="M48.3672 0.788574H63.5678V5.54752H54.0258V7.86181H62.6932V12.2822H54.0258V14.5965H63.8507V19.3554H48.3672V0.788574Z" fill="#663EF2"/>
<path d="M71.5675 0.788574H77.0971L83.7843 19.3554H77.9198L77.1481 16.7026H71.3095L70.4869 19.3554H64.8022L71.5675 0.788574ZM76.0166 12.7249L74.3702 7.00381H74.3193L72.545 12.7249H76.0176H76.0166Z" fill="#663EF2"/>
<path d="M85.1987 0.788574H90.8574V7.18571H90.9094L95.9503 0.788574H102.92L96.2591 8.04371L104.001 19.3554H96.9539L92.4267 12.1266L90.8574 13.8689V19.3554H85.1987V0.788574Z" fill="#663EF2"/>
</g>
<defs>
<clipPath id="clip0_469_1368">
<rect width="104" height="20" fill="white"/>
</clipPath>
</defs>
</svg>
